<svg width="40" height="41" viewBox="0 0 40 41" fill="none" xmlns="http://www.w3.org/2000/svg">
<circle cx="20" cy="20.5" r="20" fill="#FFEDF6"/>
<path d="M13.5777 14.0777C13.734 13.9215 13.946 13.8337 14.167 13.8337H23.3337C23.7939 13.8337 24.167 13.4606 24.167 13.0003C24.167 12.5401 23.7939 12.167 23.3337 12.167H14.167C13.504 12.167 12.8681 12.4304 12.3992 12.8992C11.9304 13.3681 11.667 14.004 11.667 14.667V26.3337C11.667 26.9967 11.9304 27.6326 12.3992 28.1014C12.8681 28.5703 13.504 28.8337 14.167 28.8337H25.8337C26.4967 28.8337 27.1326 28.5703 27.6014 28.1014C28.0703 27.6326 28.3337 26.9967 28.3337 26.3337V20.5003C28.3337 20.0401 27.9606 19.667 27.5003 19.667C27.0401 19.667 26.667 20.0401 26.667 20.5003V26.3337C26.667 26.5547 26.5792 26.7666 26.4229 26.9229C26.2666 27.0792 26.0547 27.167 25.8337 27.167H14.167C13.946 27.167 13.734 27.0792 13.5777 26.9229C13.4215 26.7666 13.3337 26.5547 13.3337 26.3337V14.667C13.3337 14.446 13.4215 14.234 13.5777 14.0777Z" fill="#B21D68"/>
<path d="M20.5896 22.7559L28.9229 14.4226C29.2484 14.0972 29.2484 13.5695 28.9229 13.2441C28.5975 12.9186 28.0698 12.9186 27.7444 13.2441L20.0003 20.9882L18.0896 19.0774C17.7641 18.752 17.2365 18.752 16.9111 19.0774C16.5856 19.4028 16.5856 19.9305 16.9111 20.2559L19.4111 22.7559C19.7365 23.0814 20.2641 23.0814 20.5896 22.7559Z" fill="#730B3F"/>
</svg>
