<svg xmlns="http://www.w3.org/2000/svg" width="72" height="72" fill="none">
  <path fill="#D3C7FC"
    d="M7.56 31.201h57.077v33.664c0 1.11-.915 2.01-2.043 2.01H9.604c-1.13 0-2.044-.9-2.044-2.01V31.2Z" />
  <path fill="#D3C7FC"
    d="M33.488 12.905a4.687 4.687 0 0 1 5.418 0l25.731 18.296H7.56l25.928-18.296Z" />
  <path fill="#2A0F57"
    d="M33.49 15.874a4.687 4.687 0 0 1 5.414 0l21.968 15.328H11.821l21.67-15.328Z" />
  <path fill="#2A0F57"
    d="M38.797 46.115a4.687 4.687 0 0 1-5.2 0l-22.37-14.914h49.942L38.797 46.115Z" />
  <path fill="#5F38EB" d="M15.388 5.041h41.024v40.43H15.388V5.04Z" />
  <path fill="#D3C7FC" fill-rule="evenodd"
    d="M10.96 30.678c.236 0 .468.07.664.202l22.243 14.964a4.687 4.687 0 0 0 5.232 0L61.343 30.88a1.19 1.19 0 0 1 .663-.202h1.243c.657 0 1.189.532 1.189 1.189v32.755a2.043 2.043 0 0 1-2.043 2.043H9.603a2.043 2.043 0 0 1-2.043-2.043V31.867c0-.657.532-1.19 1.19-1.19h2.21Z"
    clip-rule="evenodd" />
  <mask id="a" width="58" height="37" x="7" y="30" maskUnits="userSpaceOnUse"
    style="mask-type:alpha">
    <path fill="#fff"
      d="m7.56 31.202 57.176-.595v34.225a2.043 2.043 0 0 1-2.043 2.043H9.702a2.043 2.043 0 0 1-2.043-2.043l-.099-33.63Z" />
  </mask>
  <g mask="url(#a)">
    <path fill="#D3C7FC"
      d="M32.715 42.656a4.687 4.687 0 0 1 6.505 0L66.266 68.72H5.669l27.046-26.064Z" />
    <path fill="#2A0F57" fill-rule="evenodd"
      d="M36.624 41.737c-.318-.04-.64-.04-.96 0a4.089 4.089 0 0 0-2.323 1.104L7.817 67.278h56.655L38.948 42.84a4.089 4.089 0 0 0-2.324-1.104Zm-1.087-1.016c.404-.05.812-.05 1.215 0a5.122 5.122 0 0 1 2.91 1.382l27.365 26.2H5.262l27.365-26.2a5.121 5.121 0 0 1 2.91-1.382Z"
      clip-rule="evenodd" />
  </g>
  <path fill="#fff" fill-rule="evenodd"
    d="M35.042 14.59a.684.684 0 0 0-1.368 0 5.7 5.7 0 0 1-5.7 5.7.684.684 0 1 0 0 1.368 5.7 5.7 0 0 1 5.7 5.7.684.684 0 1 0 1.368 0 5.7 5.7 0 0 1 5.7-5.7.684.684 0 0 0 0-1.368 5.7 5.7 0 0 1-5.7-5.7Zm7.136 10.032a.524.524 0 0 0-1.049 0c0 .585-.28 1.138-.718 1.554-.443.42-1.002.657-1.493.657a.524.524 0 0 0 0 1.049 2.211 2.211 0 0 1 2.211 2.211.524.524 0 0 0 1.049 0c0-1.22.99-2.211 2.211-2.211a.524.524 0 1 0 0-1.049 2.211 2.211 0 0 1-2.211-2.211Z"
    clip-rule="evenodd" />
</svg>
