<svg width="40" height="41" viewBox="0 0 40 41" fill="none" xmlns="http://www.w3.org/2000/svg">
<circle cx="20" cy="20.5" r="20" fill="#E9F2FF"/>
<path d="M25.8332 13.8335H14.1665C13.5035 13.8335 12.8676 14.0969 12.3987 14.5657C11.9299 15.0346 11.6665 15.6705 11.6665 16.3335V24.6668C11.6665 25.3299 11.9299 25.9658 12.3987 26.4346C12.8676 26.9034 13.5035 27.1668 14.1665 27.1668H25.8332C26.4962 27.1668 27.1321 26.9034 27.6009 26.4346C28.0698 25.9658 28.3332 25.3299 28.3332 24.6668V16.3335C28.3332 15.6705 28.0698 15.0346 27.6009 14.5657C27.1321 14.0969 26.4962 13.8335 25.8332 13.8335ZM25.4915 15.5002L20.5915 20.4002C20.514 20.4783 20.4219 20.5403 20.3203 20.5826C20.2188 20.6249 20.1098 20.6467 19.9998 20.6467C19.8898 20.6467 19.7809 20.6249 19.6794 20.5826C19.5778 20.5403 19.4856 20.4783 19.4082 20.4002L14.5082 15.5002H25.4915ZM26.6665 24.6668C26.6665 24.8878 26.5787 25.0998 26.4224 25.2561C26.2661 25.4124 26.0542 25.5002 25.8332 25.5002H14.1665C13.9455 25.5002 13.7335 25.4124 13.5772 25.2561C13.421 25.0998 13.3332 24.8878 13.3332 24.6668V16.6752L18.2332 21.5752C18.7019 22.0433 19.3373 22.3063 19.9998 22.3063C20.6623 22.3063 21.2978 22.0433 21.7665 21.5752L26.6665 16.6752V24.6668Z" fill="#0852C2"/>
</svg>
