<svg width="69" height="69" viewBox="0 0 69 69" fill="none" xmlns="http://www.w3.org/2000/svg">
<path fill-rule="evenodd" clip-rule="evenodd" d="M23.5844 34.737L16.2882 42.0332C14.4566 43.8648 11.4869 43.8648 9.65526 42.0332C7.82363 40.2016 7.82363 37.2319 9.65526 35.4003L16.9515 28.104L23.5844 34.737Z" fill="#F199AA"/>
<path fill-rule="evenodd" clip-rule="evenodd" d="M40.83 51.9826L33.5338 59.2788C31.7022 61.1104 28.7325 61.1104 26.9009 59.2788C25.0692 57.4472 25.0692 54.4775 26.9009 52.6459L34.1971 45.3496L40.83 51.9826Z" fill="#F199AA"/>
<path fill-rule="evenodd" clip-rule="evenodd" d="M8.14602 54.1552L27.5726 34.7286L34.2056 41.3615L14.7789 60.7881C12.7735 62.7936 9.66297 62.9345 7.83134 61.1028C5.99971 59.2712 6.14059 56.1606 8.14602 54.1552Z" fill="#F199AA"/>
<path d="M56.4129 0.929071L12.5074 15.6902C10.7773 16.2754 9.2684 17.3848 8.18633 18.8672C7.10427 20.3497 6.50174 22.1329 6.4609 23.9739C6.42006 25.8148 6.94289 27.6239 7.95811 29.1544C8.97333 30.6849 10.4315 31.8624 12.1339 32.5264L28.3809 38.7953C28.7663 38.9544 29.1164 39.1893 29.4108 39.4864C29.7052 39.7835 29.9381 40.1368 30.0957 40.5256L36.3083 56.9199C36.8384 58.3125 37.705 59.5494 38.8292 60.5183C39.9534 61.4873 41.2996 62.1574 42.7455 62.4679C44.1915 62.7784 45.6913 62.7194 47.1086 62.2962C48.526 61.8731 49.8159 61.0992 50.8612 60.0449C51.8303 59.0473 52.5659 57.8436 53.0142 56.5219L67.6428 12.2185C68.1585 10.6438 68.2304 8.9553 67.8505 7.34145C67.4707 5.7276 66.6539 4.25183 65.4914 3.07881C64.3289 1.90578 62.8664 1.08163 61.2671 0.698316C59.6677 0.314998 57.9944 0.387582 56.4338 0.907976L56.4129 0.929071ZM62.018 10.3398L47.3895 54.6432C47.1898 55.2172 46.8209 55.7159 46.3323 56.0723C45.8436 56.4287 45.2587 56.6258 44.6558 56.6372C44.0529 56.6486 43.4609 56.4737 42.9591 56.136C42.4574 55.7982 42.07 55.3138 41.8488 54.7477L35.6152 38.3746C35.53 38.158 35.4322 37.9466 35.3224 37.7416L49.726 23.2075C50.2804 22.648 50.5918 21.8891 50.5917 21.0978C50.5915 20.3065 50.2799 19.5475 49.7252 18.9879C49.1706 18.4282 48.4185 18.1137 47.6342 18.1136C46.85 18.1135 46.098 18.4277 45.5435 18.9871L31.14 33.5212C30.9368 33.4105 30.7273 33.3118 30.5127 33.2257L14.2865 26.9357C13.7255 26.7125 13.2455 26.3215 12.9108 25.8153C12.5761 25.309 12.4028 24.7116 12.414 24.1033C12.4253 23.4949 12.6206 22.9046 12.9739 22.4116C13.3271 21.9185 13.8212 21.5463 14.3901 21.3448L58.2957 6.58367C58.8136 6.41522 59.3676 6.39429 59.8966 6.52316C60.4257 6.65204 60.9093 6.92573 61.2942 7.3141C61.679 7.70247 61.9503 8.19045 62.078 8.7243C62.2057 9.25815 62.185 9.81716 62.018 10.3398Z" fill="#E75571"/>
</svg>
