<svg width="90" height="90" viewBox="0 0 90 90" fill="none" xmlns="http://www.w3.org/2000/svg">
  <g clip-path="url(#clip0_14676_14639)">
    <path d="M81.5396 44.01C81.5396 65.5326 64.0921 82.98 42.5696 82.98C21.0471 82.98 3.59961 65.5326 3.59961 44.01C3.59961 22.4875 21.0471 5.04004 42.5696 5.04004C64.0921 5.04004 81.5396 22.4875 81.5396 44.01Z" fill="white" />
    <path fill-rule="evenodd" clip-rule="evenodd" d="M42.5696 82.98C64.0922 82.98 81.5396 65.5326 81.5396 44.01C81.5396 22.4875 64.0922 5.04004 42.5696 5.04004C21.0471 5.04004 3.59961 22.4875 3.59961 44.01C3.59961 65.5326 21.0471 82.98 42.5696 82.98Z" fill="#FECF40" />
    <path d="M45.4509 38.2587H46.9831C47.3895 38.2587 47.7792 38.0972 48.0665 37.8099C48.3539 37.5225 48.5153 37.1328 48.5153 36.7265C48.5153 36.3201 48.3539 35.9304 48.0665 35.643C47.7792 35.3557 47.3895 35.1942 46.9831 35.1942H45.4509C45.0445 35.1942 44.6548 35.3557 44.3675 35.643C44.0801 35.9304 43.9187 36.3201 43.9187 36.7265C43.9187 37.1328 44.0801 37.5225 44.3675 37.8099C44.6548 38.0972 45.0445 38.2587 45.4509 38.2587ZM45.4509 44.3875H46.9831C47.3895 44.3875 47.7792 44.226 48.0665 43.9387C48.3539 43.6514 48.5153 43.2616 48.5153 42.8553C48.5153 42.4489 48.3539 42.0592 48.0665 41.7718C47.7792 41.4845 47.3895 41.3231 46.9831 41.3231H45.4509C45.0445 41.3231 44.6548 41.4845 44.3675 41.7718C44.0801 42.0592 43.9187 42.4489 43.9187 42.8553C43.9187 43.2616 44.0801 43.6514 44.3675 43.9387C44.6548 44.226 45.0445 44.3875 45.4509 44.3875ZM37.7899 38.2587H39.3221C39.7285 38.2587 40.1182 38.0972 40.4055 37.8099C40.6929 37.5225 40.8543 37.1328 40.8543 36.7265C40.8543 36.3201 40.6929 35.9304 40.4055 35.643C40.1182 35.3557 39.7285 35.1942 39.3221 35.1942H37.7899C37.3835 35.1942 36.9938 35.3557 36.7065 35.643C36.4191 35.9304 36.2577 36.3201 36.2577 36.7265C36.2577 37.1328 36.4191 37.5225 36.7065 37.8099C36.9938 38.0972 37.3835 38.2587 37.7899 38.2587ZM37.7899 44.3875H39.3221C39.7285 44.3875 40.1182 44.226 40.4055 43.9387C40.6929 43.6514 40.8543 43.2616 40.8543 42.8553C40.8543 42.4489 40.6929 42.0592 40.4055 41.7718C40.1182 41.4845 39.7285 41.3231 39.3221 41.3231H37.7899C37.3835 41.3231 36.9938 41.4845 36.7065 41.7718C36.4191 42.0592 36.2577 42.4489 36.2577 42.8553C36.2577 43.2616 36.4191 43.6514 36.7065 43.9387C36.9938 44.226 37.3835 44.3875 37.7899 44.3875ZM56.1763 56.6451H54.6441V30.5976C54.6441 30.1913 54.4827 29.8015 54.1954 29.5142C53.908 29.2269 53.5183 29.0654 53.1119 29.0654H31.6611C31.2547 29.0654 30.865 29.2269 30.5776 29.5142C30.2903 29.8015 30.1289 30.1913 30.1289 30.5976V56.6451H28.5967C28.1903 56.6451 27.8006 56.8065 27.5132 57.0939C27.2259 57.3812 27.0645 57.771 27.0645 58.1773C27.0645 58.5837 27.2259 58.9734 27.5132 59.2608C27.8006 59.5481 28.1903 59.7095 28.5967 59.7095H56.1763C56.5827 59.7095 56.9724 59.5481 57.2598 59.2608C57.5471 58.9734 57.7085 58.5837 57.7085 58.1773C57.7085 57.771 57.5471 57.3812 57.2598 57.0939C56.9724 56.8065 56.5827 56.6451 56.1763 56.6451ZM43.9187 56.6451H40.8543V50.5163H43.9187V56.6451ZM51.5797 56.6451H46.9831V48.9841C46.9831 48.5777 46.8217 48.188 46.5343 47.9007C46.247 47.6133 45.8573 47.4519 45.4509 47.4519H39.3221C38.9157 47.4519 38.526 47.6133 38.2387 47.9007C37.9513 48.188 37.7899 48.5777 37.7899 48.9841V56.6451H33.1933V32.1298H51.5797V56.6451Z" fill="#1A1A1A" />
  </g>
  <rect x="48.959" y="47.5205" width="37.44" height="37.44" rx="18.72" fill="#146EF6" />
  <path d="M67.5209 57.8809C68.1173 57.8809 68.6009 58.3644 68.6009 58.9609V74.0809C68.6009 74.6773 68.1173 75.1609 67.5209 75.1609C66.9244 75.1609 66.4409 74.6773 66.4409 74.0809V58.9609C66.4409 58.3644 66.9244 57.8809 67.5209 57.8809Z" fill="white" />
  <path d="M66.7572 58.1972C67.179 57.7754 67.8628 57.7754 68.2845 58.1972L75.8445 65.7572C76.2663 66.179 76.2663 66.8628 75.8445 67.2845C75.4228 67.7063 74.739 67.7063 74.3172 67.2845L67.5209 60.4882L60.7245 67.2845C60.3028 67.7063 59.619 67.7063 59.1972 67.2845C58.7754 66.8628 58.7754 66.179 59.1972 65.7572L66.7572 58.1972Z" fill="white" />
  <defs>
    <clipPath id="clip0_14676_14639">
      <rect width="77.94" height="77.94" fill="white" transform="translate(3.59961 5.04004)" />
    </clipPath>
  </defs>
</svg>