<svg width="90" height="90" viewBox="0 0 90 90" fill="none" xmlns="http://www.w3.org/2000/svg">
  <g clip-path="url(#clip0_14676_14623)">
    <path d="M81.5396 44.01C81.5396 65.5326 64.0921 82.98 42.5696 82.98C21.0471 82.98 3.59961 65.5326 3.59961 44.01C3.59961 22.4875 21.0471 5.04004 42.5696 5.04004C64.0921 5.04004 81.5396 22.4875 81.5396 44.01Z" fill="white" />
    <path fill-rule="evenodd" clip-rule="evenodd" d="M42.5696 82.98C64.0922 82.98 81.5396 65.5326 81.5396 44.01C81.5396 22.4875 64.0922 5.04004 42.5696 5.04004C21.0471 5.04004 3.59961 22.4875 3.59961 44.01C3.59961 65.5326 21.0471 82.98 42.5696 82.98Z" fill="#FECF40" />
    <path d="M42.8687 44.7241C43.6874 44.0164 44.344 43.1412 44.794 42.1577C45.2441 41.1742 45.477 40.1056 45.477 39.0243C45.477 36.9925 44.6688 35.0439 43.2301 33.6071C41.7914 32.1704 39.8401 31.3633 37.8056 31.3633C35.771 31.3633 33.8197 32.1704 32.381 33.6071C30.9424 35.0439 30.1341 36.9925 30.1341 39.0243C30.1341 40.1056 30.367 41.1742 30.8171 42.1577C31.2671 43.1412 31.9237 44.0164 32.7424 44.7241C30.5946 45.6953 28.7724 47.2638 27.4936 49.2419C26.2148 51.22 25.5335 53.524 25.5312 55.8786C25.5312 56.2849 25.6929 56.6746 25.9806 56.962C26.2684 57.2493 26.6586 57.4108 27.0655 57.4108C27.4725 57.4108 27.8627 57.2493 28.1504 56.962C28.4382 56.6746 28.5998 56.2849 28.5998 55.8786C28.5998 53.4404 29.5697 51.102 31.2961 49.378C33.0225 47.6539 35.364 46.6853 37.8056 46.6853C40.2471 46.6853 42.5886 47.6539 44.315 49.378C46.0414 51.102 47.0113 53.4404 47.0113 55.8786C47.0113 56.2849 47.1729 56.6746 47.4607 56.962C47.7484 57.2493 48.1387 57.4108 48.5456 57.4108C48.9525 57.4108 49.3427 57.2493 49.6305 56.962C49.9182 56.6746 50.0799 56.2849 50.0799 55.8786C50.0776 53.524 49.3963 51.22 48.1175 49.2419C46.8387 47.2638 45.0165 45.6953 42.8687 44.7241ZM37.8056 43.6209C36.8952 43.6209 36.0053 43.3513 35.2483 42.8462C34.4914 42.3412 33.9014 41.6233 33.5531 40.7834C33.2047 39.9434 33.1135 39.0192 33.2911 38.1276C33.4687 37.2359 33.9071 36.4169 34.5508 35.774C35.1946 35.1312 36.0147 34.6934 36.9076 34.516C37.8004 34.3387 38.7259 34.4297 39.567 34.7776C40.4081 35.1255 41.1269 35.7147 41.6327 36.4706C42.1385 37.2265 42.4084 38.1152 42.4084 39.0243C42.4084 40.2434 41.9235 41.4126 41.0603 42.2746C40.1971 43.1366 39.0263 43.6209 37.8056 43.6209ZM52.7495 44.1112C53.7314 43.007 54.3728 41.6429 54.5965 40.1832C54.8202 38.7234 54.6166 37.2302 54.0103 35.8833C53.4041 34.5364 52.4209 33.3931 51.1791 32.5912C49.9374 31.7893 48.49 31.3629 47.0113 31.3633C46.6044 31.3633 46.2141 31.5247 45.9264 31.8121C45.6386 32.0994 45.477 32.4891 45.477 32.8955C45.477 33.3019 45.6386 33.6916 45.9264 33.9789C46.2141 34.2663 46.6044 34.4277 47.0113 34.4277C48.232 34.4277 49.4028 34.912 50.266 35.774C51.1292 36.636 51.6141 37.8052 51.6141 39.0243C51.612 39.8291 51.3983 40.6192 50.9944 41.3156C50.5905 42.012 50.0106 42.5903 49.3127 42.9927C49.0852 43.1238 48.8952 43.3109 48.7609 43.5363C48.6266 43.7616 48.5525 44.0176 48.5456 44.2798C48.5392 44.5399 48.5992 44.7973 48.72 45.0279C48.8408 45.2584 49.0184 45.4544 49.236 45.5975L49.8344 45.9958L50.0338 46.1031C51.8833 46.9791 53.4435 48.3646 54.5308 50.0965C55.6181 51.8284 56.1872 53.8345 56.171 55.8786C56.171 56.2849 56.3326 56.6746 56.6204 56.962C56.9081 57.2493 57.2984 57.4108 57.7053 57.4108C58.1122 57.4108 58.5024 57.2493 58.7902 56.962C59.0779 56.6746 59.2396 56.2849 59.2396 55.8786C59.2521 53.5273 58.6624 51.2118 57.5265 49.1523C56.3906 47.0927 54.7462 45.3574 52.7495 44.1112Z" fill="#1A1A1A" />
  </g>
  <rect x="48.959" y="47.5205" width="37.44" height="37.44" rx="18.72" fill="#146EF6" />
  <path d="M67.5209 57.8809C68.1173 57.8809 68.6009 58.3644 68.6009 58.9609V74.0809C68.6009 74.6773 68.1173 75.1609 67.5209 75.1609C66.9244 75.1609 66.4409 74.6773 66.4409 74.0809V58.9609C66.4409 58.3644 66.9244 57.8809 67.5209 57.8809Z" fill="white" />
  <path d="M66.7572 58.1972C67.179 57.7754 67.8628 57.7754 68.2845 58.1972L75.8445 65.7572C76.2663 66.179 76.2663 66.8628 75.8445 67.2845C75.4228 67.7063 74.739 67.7063 74.3172 67.2845L67.5209 60.4882L60.7245 67.2845C60.3028 67.7063 59.619 67.7063 59.1972 67.2845C58.7754 66.8628 58.7754 66.179 59.1972 65.7572L66.7572 58.1972Z" fill="white" />
  <defs>
    <clipPath id="clip0_14676_14623">
      <rect width="77.94" height="77.94" fill="white" transform="translate(3.59961 5.04004)" />
    </clipPath>
  </defs>
</svg>