<svg width="43" height="43" viewBox="0 0 43 43" fill="none" xmlns="http://www.w3.org/2000/svg">
<circle cx="20" cy="20.5" r="20" fill="#E7F6FE"/>
<circle cx="35" cy="35" r="8" fill="#2A618F"/>
<path fill-rule="evenodd" clip-rule="evenodd" d="M34.9987 31.6665C36.7064 31.6665 38.2892 32.879 39.1306 34.8332C39.1535 34.8857 39.1654 34.9425 39.1654 34.9998C39.1654 35.0572 39.1535 35.1139 39.1306 35.1665C38.2892 37.1207 36.7064 38.3332 34.9987 38.3332C33.291 38.3332 31.7082 37.1207 30.8668 35.1665C30.8439 35.1139 30.832 35.0572 30.832 34.9998C30.832 34.9425 30.8439 34.8857 30.8668 34.8332C31.7082 32.879 33.291 31.6665 34.9987 31.6665ZM34.073 33.6141C34.347 33.4309 34.6691 33.3332 34.9986 33.3332C35.4405 33.3332 35.8643 33.5088 36.1767 33.8213C36.4892 34.1339 36.6647 34.5578 36.6647 34.9998C36.6647 35.3295 36.567 35.6517 36.3839 35.9258C36.2008 36.1999 35.9406 36.4135 35.6362 36.5396C35.3318 36.6658 34.9968 36.6988 34.6736 36.6345C34.3504 36.5702 34.0535 36.4114 33.8205 36.1783C33.5875 35.9453 33.4288 35.6483 33.3645 35.325C33.3002 35.0017 33.3332 34.6666 33.4593 34.362C33.5854 34.0575 33.799 33.7972 34.073 33.6141ZM34.5358 35.6927C34.6728 35.7843 34.8338 35.8332 34.9986 35.8332C35.2195 35.8332 35.4314 35.7454 35.5877 35.5891C35.7439 35.4328 35.8316 35.2209 35.8316 34.9998C35.8316 34.835 35.7828 34.6739 35.6913 34.5369C35.5997 34.3998 35.4696 34.293 35.3174 34.2299C35.1652 34.1669 34.9977 34.1504 34.8361 34.1825C34.6745 34.2147 34.5261 34.294 34.4096 34.4106C34.2931 34.5271 34.2137 34.6756 34.1816 34.8373C34.1494 34.9989 34.1659 35.1665 34.229 35.3187C34.292 35.471 34.3988 35.6012 34.5358 35.6927Z" fill="#E7F6FE"/>
<path fill-rule="evenodd" clip-rule="evenodd" d="M12.7468 27.9744H15.8555V17.9725H12.7468V27.9744ZM15.5745 16.0746C15.9119 15.7372 16.1024 15.2801 16.1045 14.8029C16.1045 14.4464 15.9992 14.0975 15.8012 13.801C15.6031 13.5046 15.3215 13.2736 14.9922 13.1372C14.6628 13.0008 14.3003 12.9651 13.9507 13.0347C13.601 13.1043 13.2798 13.276 13.0278 13.5281C12.7757 13.7802 12.6041 14.1014 12.5346 14.4511C12.4651 14.8008 12.5008 15.1632 12.6373 15.4926C12.7738 15.8219 13.0049 16.1034 13.3014 16.3014C13.5979 16.4994 13.9464 16.6051 14.3029 16.605C14.7801 16.6027 15.2371 16.4121 15.5745 16.0746ZM24.3932 27.9744H27.4987L27.5001 22.4875C27.5001 19.7939 26.9199 17.7235 23.7719 17.7235C23.1814 17.7022 22.5962 17.8411 22.0782 18.1256C21.5603 18.4101 21.1291 18.8294 20.8302 19.3391H20.7887V17.9725H17.8068V27.9739H20.9128V23.0262C20.9128 21.7214 21.16 20.4581 22.778 20.4581C24.3725 20.4581 24.3932 21.9511 24.3932 23.1106V27.9744Z" fill="#2A618F"/>
</svg>
