<svg width="43" height="43" viewBox="0 0 43 43" fill="none" xmlns="http://www.w3.org/2000/svg">
<circle cx="20" cy="20.5" r="20" fill="#E7F6FE"/>
<path fill-rule="evenodd" clip-rule="evenodd" d="M12.7468 27.9744H15.8555V17.9725H12.7468V27.9744ZM15.5745 16.0746C15.9119 15.7372 16.1024 15.2801 16.1045 14.8029C16.1045 14.4464 15.9992 14.0975 15.8012 13.801C15.6031 13.5046 15.3215 13.2736 14.9922 13.1372C14.6628 13.0008 14.3003 12.9651 13.9507 13.0347C13.601 13.1043 13.2798 13.276 13.0278 13.5281C12.7757 13.7802 12.6041 14.1014 12.5346 14.4511C12.4651 14.8008 12.5008 15.1632 12.6373 15.4926C12.7738 15.8219 13.0049 16.1034 13.3014 16.3014C13.5979 16.4994 13.9464 16.6051 14.3029 16.605C14.7801 16.6027 15.2371 16.4121 15.5745 16.0746ZM24.3932 27.9744H27.4987L27.5001 22.4875C27.5001 19.7939 26.9199 17.7235 23.7719 17.7235C23.1814 17.7022 22.5962 17.8411 22.0782 18.1256C21.5603 18.4101 21.1291 18.8294 20.8302 19.3391H20.7887V17.9725H17.8068V27.9739H20.9128V23.0262C20.9128 21.7214 21.16 20.4581 22.778 20.4581C24.3725 20.4581 24.3932 21.9511 24.3932 23.1106V27.9744Z" fill="#2A618F"/>
<circle cx="35" cy="35" r="8" fill="#2A618F"/>
<path d="M32.6069 34.4939V38.9986H31.8011C31.3506 38.9986 30.9902 38.6382 30.9902 38.1927V35.3047C30.9902 34.8593 31.3556 34.4939 31.8011 34.4939H32.6069ZM38.2428 33.7431H36.3508C36.0744 33.7431 35.8503 33.519 35.8503 33.2426V31.9913C35.8503 31.4407 35.3998 30.9902 34.8543 30.9902H34.8092C34.609 30.9902 34.4288 31.1104 34.3487 31.2956L32.9823 34.4939V38.9986H37.5871C37.9525 38.9986 38.2628 38.7383 38.3279 38.3779L38.9886 34.624C39.0686 34.1635 38.7183 33.7431 38.2478 33.7431H38.2428Z" fill="#E7F6FE"/>
</svg>
