<svg width="43" height="43" viewBox="0 0 43 43" fill="none" xmlns="http://www.w3.org/2000/svg">
<circle cx="20" cy="20.5" r="20" fill="#E7F6FE"/>
<path fill-rule="evenodd" clip-rule="evenodd" d="M12.7468 27.9744H15.8555V17.9725H12.7468V27.9744ZM15.5745 16.0746C15.9119 15.7372 16.1024 15.2801 16.1045 14.8029C16.1045 14.4464 15.9992 14.0975 15.8012 13.801C15.6031 13.5046 15.3215 13.2736 14.9922 13.1372C14.6628 13.0008 14.3003 12.9651 13.9507 13.0347C13.601 13.1043 13.2798 13.276 13.0278 13.5281C12.7757 13.7802 12.6041 14.1014 12.5346 14.4511C12.4651 14.8008 12.5008 15.1632 12.6373 15.4926C12.7738 15.8219 13.0049 16.1034 13.3014 16.3014C13.5979 16.4994 13.9464 16.6051 14.3029 16.605C14.7801 16.6027 15.2371 16.4121 15.5745 16.0746ZM24.3932 27.9744H27.4987L27.5001 22.4875C27.5001 19.7939 26.9199 17.7235 23.7719 17.7235C23.1814 17.7022 22.5962 17.8411 22.0782 18.1256C21.5603 18.4101 21.1291 18.8294 20.8302 19.3391H20.7887V17.9725H17.8068V27.9739H20.9128V23.0262C20.9128 21.7214 21.16 20.4581 22.778 20.4581C24.3725 20.4581 24.3932 21.9511 24.3932 23.1106V27.9744Z" fill="#2A618F"/>
<circle cx="35" cy="35" r="8" fill="#2A618F"/>
<path d="M37.9165 34.5832H35.4165V32.0832C35.4165 31.9727 35.3726 31.8667 35.2945 31.7885C35.2163 31.7104 35.1103 31.6665 34.9998 31.6665C34.8893 31.6665 34.7833 31.7104 34.7052 31.7885C34.6271 31.8667 34.5832 31.9727 34.5832 32.0832V34.5832H32.0832C31.9727 34.5832 31.8667 34.6271 31.7885 34.7052C31.7104 34.7833 31.6665 34.8893 31.6665 34.9998C31.6665 35.1103 31.7104 35.2163 31.7885 35.2945C31.8667 35.3726 31.9727 35.4165 32.0832 35.4165H34.5832V37.9165C34.5832 38.027 34.6271 38.133 34.7052 38.2111C34.7833 38.2893 34.8893 38.3332 34.9998 38.3332C35.1103 38.3332 35.2163 38.2893 35.2945 38.2111C35.3726 38.133 35.4165 38.027 35.4165 37.9165V35.4165H37.9165C38.027 35.4165 38.133 35.3726 38.2111 35.2945C38.2893 35.2163 38.3332 35.1103 38.3332 34.9998C38.3332 34.8893 38.2893 34.7833 38.2111 34.7052C38.133 34.6271 38.027 34.5832 37.9165 34.5832Z" fill="#E7F6FE" stroke="#E7F6FE" stroke-width="0.5"/>
</svg>
