<svg width="43" height="43" viewBox="0 0 43 43" fill="none" xmlns="http://www.w3.org/2000/svg">
<circle cx="20" cy="20.5" r="20" fill="#E7F6FE"/>
<circle cx="35" cy="35" r="8" fill="#2A618F"/>
<path fill-rule="evenodd" clip-rule="evenodd" d="M31.0243 33.2296C31.0083 33.3173 31 33.4077 31 33.5V36.5C31 37.3284 31.6716 38 32.5 38H37.5C38.3284 38 39 37.3284 39 36.5V33.5C39 33.4076 38.9916 33.3171 38.9756 33.2293L35.4324 35.5071C35.1689 35.6765 34.8307 35.6765 34.5672 35.5071L31.0243 33.2296ZM31.2543 32.6641L34.8916 35.0024C34.9575 35.0448 35.0421 35.0448 35.1079 35.0024L38.7456 32.6639C38.4762 32.2635 38.0189 32 37.5 32H32.5C31.981 32 31.5236 32.2636 31.2543 32.6641Z" fill="#E7F6FE"/>
<path fill-rule="evenodd" clip-rule="evenodd" d="M12.7468 27.9744H15.8555V17.9725H12.7468V27.9744ZM15.5745 16.0746C15.9119 15.7372 16.1024 15.2801 16.1045 14.8029C16.1045 14.4464 15.9992 14.0975 15.8012 13.801C15.6031 13.5046 15.3215 13.2736 14.9922 13.1372C14.6628 13.0008 14.3003 12.9651 13.9507 13.0347C13.601 13.1043 13.2798 13.276 13.0278 13.5281C12.7757 13.7802 12.6041 14.1014 12.5346 14.4511C12.4651 14.8008 12.5008 15.1632 12.6373 15.4926C12.7738 15.8219 13.0049 16.1034 13.3014 16.3014C13.5979 16.4994 13.9464 16.6051 14.3029 16.605C14.7801 16.6027 15.2371 16.4121 15.5745 16.0746ZM24.3932 27.9744H27.4987L27.5001 22.4875C27.5001 19.7939 26.9199 17.7235 23.7719 17.7235C23.1814 17.7022 22.5962 17.8411 22.0782 18.1256C21.5603 18.4101 21.1291 18.8294 20.8302 19.3391H20.7887V17.9725H17.8068V27.9739H20.9128V23.0262C20.9128 21.7214 21.16 20.4581 22.778 20.4581C24.3725 20.4581 24.3932 21.9511 24.3932 23.1106V27.9744Z" fill="#2A618F"/>
</svg>
