<svg width="40" height="41" viewBox="0 0 40 41" fill="none" xmlns="http://www.w3.org/2000/svg">
<circle cx="20" cy="20.5" r="20" fill="#F2EEFF"/>
<path d="M26.2674 21.3597C26.0834 21.3597 25.891 21.301 25.7071 21.2591C25.3344 21.1767 24.9683 21.0674 24.6114 20.9319C24.2235 20.7904 23.797 20.7977 23.4141 20.9526C23.0312 21.1074 22.7189 21.3988 22.5373 21.7707L22.3533 22.1482C21.5388 21.6937 20.7902 21.1292 20.1287 20.4706C19.472 19.8072 18.9092 19.0564 18.456 18.2395L18.8073 18.0046C19.1781 17.8225 19.4686 17.5094 19.623 17.1253C19.7774 16.7413 19.7848 16.3136 19.6436 15.9245C19.5108 15.5658 19.4019 15.1988 19.3174 14.8257C19.2756 14.6411 19.2422 14.4482 19.2171 14.2553C19.1155 13.6645 18.807 13.1295 18.347 12.7466C17.887 12.3637 17.3058 12.1581 16.7081 12.1668H14.1991C13.8386 12.1634 13.4817 12.2379 13.1526 12.3853C12.8234 12.5327 12.5298 12.7495 12.2917 13.0209C12.0537 13.2923 11.8767 13.612 11.7728 13.9581C11.669 14.3043 11.6408 14.6689 11.6901 15.027C12.1356 18.5409 13.7358 21.8058 16.2378 24.306C18.7398 26.8062 22.001 28.3991 25.5063 28.8332H25.8241C26.4409 28.8341 27.0363 28.6071 27.4968 28.1957C27.7614 27.9584 27.9728 27.6674 28.1169 27.3421C28.2611 27.0168 28.3348 26.6645 28.3331 26.3085V23.7921C28.3229 23.2095 28.1114 22.6485 27.7346 22.2049C27.3579 21.7613 26.8393 21.4626 26.2674 21.3597V21.3597ZM26.6856 26.3923C26.6854 26.5114 26.66 26.6291 26.6109 26.7376C26.5619 26.8461 26.4904 26.9428 26.4012 27.0214C26.308 27.1028 26.1988 27.1635 26.0806 27.1997C25.9624 27.2358 25.838 27.2465 25.7154 27.2311C22.5833 26.8283 19.6739 25.3913 17.4463 23.1465C15.2187 20.9018 13.7996 17.9772 13.4129 14.8341C13.3996 14.7112 13.4113 14.5869 13.4472 14.4687C13.4831 14.3505 13.5426 14.2408 13.622 14.1463C13.7004 14.0568 13.7968 13.9851 13.905 13.9359C14.0131 13.8868 14.1305 13.8612 14.2492 13.8611H16.7583C16.9527 13.8567 17.1427 13.9205 17.2953 14.0415C17.448 14.1624 17.5538 14.333 17.5946 14.5237C17.628 14.753 17.6699 14.9795 17.72 15.2031C17.8167 15.6453 17.9452 16.0798 18.1048 16.5032L16.9339 17.0484C16.8338 17.0945 16.7437 17.1599 16.6689 17.241C16.5941 17.3221 16.536 17.4172 16.4979 17.5208C16.4598 17.6245 16.4425 17.7346 16.447 17.845C16.4515 17.9554 16.4777 18.0638 16.5241 18.164C17.7277 20.7497 19.8002 22.8282 22.3784 24.0354C22.582 24.1193 22.8104 24.1193 23.014 24.0354C23.1184 23.998 23.2142 23.9402 23.296 23.8653C23.3779 23.7904 23.4441 23.7 23.4908 23.5992L24.0093 22.425C24.4416 22.58 24.8829 22.7089 25.3307 22.8108C25.5537 22.8611 25.7795 22.9031 26.0081 22.9366C26.1983 22.9775 26.3684 23.0837 26.489 23.2368C26.6096 23.3899 26.6732 23.5803 26.6688 23.7754L26.6856 26.3923Z" fill="#3D1DB2"/>
</svg>
