<svg width="83" height="72" viewBox="0 0 83 72" fill="none" xmlns="http://www.w3.org/2000/svg">
<path d="M0.717896 2.22149C0.717896 0.994597 1.71249 0 2.93938 0L46.8031 0C48.03 0 49.0246 0.994594 49.0246 2.22149V58.0198C49.0246 59.2467 48.03 60.2413 46.8031 60.2413H2.93938C1.71249 60.2413 0.717896 59.2467 0.717896 58.0198L0.717896 2.22149Z" fill="#FEE28C"/>
<path fill-rule="evenodd" clip-rule="evenodd" d="M5.08154 9.45454C5.08154 9.05288 5.40715 8.72726 5.80882 8.72726H43.9906C44.3923 8.72726 44.7179 9.05288 44.7179 9.45454C44.7179 9.8562 44.3923 10.1818 43.9906 10.1818H5.80882C5.40715 10.1818 5.08154 9.8562 5.08154 9.45454Z" fill="#D0A933"/>
<path fill-rule="evenodd" clip-rule="evenodd" d="M5.08154 20.3636C5.08154 19.962 5.40715 19.6364 5.80882 19.6364H43.9906C44.3923 19.6364 44.7179 19.962 44.7179 20.3636C44.7179 20.7653 44.3923 21.0909 43.9906 21.0909H5.80882C5.40715 21.0909 5.08154 20.7653 5.08154 20.3636Z" fill="#D0A933"/>
<path fill-rule="evenodd" clip-rule="evenodd" d="M5.08154 31.2727C5.08154 30.8711 5.40715 30.5455 5.80882 30.5455H43.9906C44.3923 30.5455 44.7179 30.8711 44.7179 31.2727C44.7179 31.6744 44.3923 32 43.9906 32H5.80882C5.40715 32 5.08154 31.6744 5.08154 31.2727Z" fill="#D0A933"/>
<path fill-rule="evenodd" clip-rule="evenodd" d="M5.08154 41.4545C5.08154 41.0529 5.40715 40.7273 5.80882 40.7273H27.627C28.0287 40.7273 28.3543 41.0529 28.3543 41.4545C28.3543 41.8562 28.0287 42.1818 27.627 42.1818H5.80882C5.40715 42.1818 5.08154 41.8562 5.08154 41.4545Z" fill="#D0A933"/>
<path fill-rule="evenodd" clip-rule="evenodd" d="M5.08154 51.6364C5.08154 51.2347 5.40715 50.9091 5.80882 50.9091H27.627C28.0287 50.9091 28.3543 51.2347 28.3543 51.6364C28.3543 52.038 28.0287 52.3636 27.627 52.3636H5.80882C5.40715 52.3636 5.08154 52.038 5.08154 51.6364Z" fill="#D0A933"/>
<path d="M32.7179 36.048C32.7179 35.8207 32.9022 35.6364 33.1295 35.6364H81.8704C82.0977 35.6364 82.282 35.8207 82.282 36.048V71.1915C82.282 71.638 81.9201 72 81.4735 72H33.5264C33.0799 72 32.7179 71.638 32.7179 71.1915V36.048Z" fill="#FECF40"/>
<mask id="mask0_792_34395" style="mask-type:alpha" maskUnits="userSpaceOnUse" x="32" y="35" width="51" height="37">
<path d="M32.7179 36.048C32.7179 35.8207 32.9022 35.6364 33.1295 35.6364H81.8704C82.0977 35.6364 82.282 35.8207 82.282 36.048V71.1915C82.282 71.638 81.9201 72 81.4735 72H33.5264C33.0799 72 32.7179 71.638 32.7179 71.1915V36.048Z" fill="#6CA4F9"/>
</mask>
<g mask="url(#mask0_792_34395)">
<path fill-rule="evenodd" clip-rule="evenodd" d="M56.5918 60.1809C57.4482 61.0255 58.8265 61.0181 59.6737 60.1644L83.5378 36.1168C84.2432 35.406 83.7537 34.1962 82.7524 34.1759L31.9831 33.1468C30.9537 33.126 30.4272 34.3733 31.1603 35.0963L56.5918 60.1809ZM58.6413 59.1398C58.3586 59.4246 57.8989 59.427 57.6133 59.1453L32.7458 34.6171L81.9863 35.6152L58.6413 59.1398Z" fill="#5C4A13"/>
<path fill-rule="evenodd" clip-rule="evenodd" d="M82.409 73.5125L65.9683 52.147L67.121 51.26L83.5617 72.6255L82.409 73.5125Z" fill="#5C4A13"/>
<path fill-rule="evenodd" clip-rule="evenodd" d="M32.5748 73.877L49.7783 52.155L48.6381 51.252L31.4346 72.974L32.5748 73.877Z" fill="#5C4A13"/>
</g>
</svg>
