<svg width="150" height="150" viewBox="0 0 150 150" fill="none" xmlns="http://www.w3.org/2000/svg">
<path fill-rule="evenodd" clip-rule="evenodd" d="M65.5153 125.781C91.3431 125.781 112.281 104.843 112.281 79.0153C112.281 53.1876 91.3431 32.25 65.5153 32.25C39.6876 32.25 18.75 53.1876 18.75 79.0153C18.75 104.843 39.6876 125.781 65.5153 125.781ZM65.4056 116.781C86.3234 116.781 103.281 99.9913 103.281 79.2806C103.281 58.57 86.3234 41.7806 65.4056 41.7806C44.4879 41.7806 27.5306 58.57 27.5306 79.2806C27.5306 99.9913 44.4879 116.781 65.4056 116.781Z" fill="#1BDD5D" style="mix-blend-mode:multiply"/>
<path d="M85.103 67.4422C84.8351 67.1534 84.5164 66.9241 84.1652 66.7676C83.8141 66.6112 83.4374 66.5306 83.057 66.5306C82.6765 66.5306 82.2999 66.6112 81.9487 66.7676C81.5975 66.9241 81.2788 67.1534 81.0109 67.4422L59.5417 90.4318L50.5218 80.7552C50.2436 80.4679 49.9153 80.2419 49.5555 80.0903C49.1957 79.9387 48.8114 79.8643 48.4248 79.8715C48.0381 79.8786 47.6565 79.9671 47.3018 80.132C46.9471 80.2968 46.6263 80.5348 46.3576 80.8322C46.0889 81.1297 45.8776 81.4808 45.7358 81.8656C45.5941 82.2504 45.5245 82.6612 45.5312 83.0747C45.5379 83.4882 45.6207 83.8963 45.7748 84.2756C45.929 84.6549 46.1515 84.998 46.4297 85.2853L57.4957 97.1191C57.7636 97.4079 58.0823 97.6372 58.4335 97.7936C58.7846 97.9501 59.1613 98.0306 59.5417 98.0306C59.9221 98.0306 60.2988 97.9501 60.65 97.7936C61.0011 97.6372 61.3199 97.4079 61.5878 97.1191L85.103 71.9723C85.3955 71.6837 85.629 71.3335 85.7887 70.9437C85.9483 70.5538 86.0308 70.1329 86.0308 69.7073C86.0308 69.2817 85.9483 68.8607 85.7887 68.4709C85.629 68.081 85.3955 67.7308 85.103 67.4422V67.4422Z" fill="#0C5E27"/>
<path fill-rule="evenodd" clip-rule="evenodd" d="M136.05 28.135L126.388 37.3038L125.35 36.2115L135.012 27.0427C135.314 26.7562 135.791 26.7685 136.078 27.0702C136.365 27.3718 136.352 27.8485 136.05 28.135Z" fill="#222222"/>
<path fill-rule="evenodd" clip-rule="evenodd" d="M122.408 18.7243L118.628 31.4916L117.182 31.0644L120.962 18.297C121.08 17.8981 121.5 17.6704 121.899 17.7884C122.298 17.9064 122.526 18.3254 122.408 18.7243Z" fill="#222222"/>
<path fill-rule="evenodd" clip-rule="evenodd" d="M143.416 48.6328L130.095 48.2894L130.134 46.7835L143.455 47.127C143.871 47.1377 144.199 47.4835 144.189 47.8993C144.178 48.3152 143.832 48.6436 143.416 48.6328Z" fill="#222222"/>
<circle cx="107.25" cy="52.5" r="16.5" fill="#F75252"/>
<path d="M107.086 59.8091C105.423 59.8091 104.093 59.3387 103.098 58.3978C102.116 57.4432 101.625 56.0114 101.625 54.1023V50.625C101.625 48.7568 102.116 47.3387 103.098 46.3705C104.093 45.4023 105.423 44.9182 107.086 44.9182C108.764 44.9182 110.093 45.4023 111.075 46.3705C112.07 47.3387 112.568 48.7568 112.568 50.625V54.1023C112.568 56.0114 112.07 57.4432 111.075 58.3978C110.093 59.3387 108.764 59.8091 107.086 59.8091ZM107.086 57.8864C108.218 57.8864 109.057 57.5659 109.602 56.925C110.148 56.2705 110.42 55.3568 110.42 54.1841V50.5023C110.42 49.3296 110.127 48.4296 109.541 47.8023C108.955 47.1614 108.136 46.8409 107.086 46.8409C106.023 46.8409 105.205 47.1682 104.632 47.8228C104.059 48.4637 103.773 49.3569 103.773 50.5023V54.1841C103.773 55.3841 104.045 56.3046 104.591 56.9455C105.15 57.5728 105.982 57.8864 107.086 57.8864Z" fill="white"/>
</svg>
